<svg width="16" height="16" viewBox="0 0 16 16" fill="none" xmlns="http://www.w3.org/2000/svg">
<path d="M4.96192 13.8592C10.9337 13.8592 14.199 8.91079 14.199 4.62213C14.199 4.48075 14.199 4.33936 14.1923 4.20471C14.8252 3.7469 15.3772 3.17463 15.8148 2.52156C15.2358 2.7774 14.6097 2.95245 13.9499 3.03324C14.6232 2.62929 15.1349 1.99642 15.3772 1.23564C14.7511 1.60593 14.0576 1.87524 13.3171 2.02335C12.7246 1.39049 11.883 1 10.9472 1C9.15632 1 7.70208 2.45424 7.70208 4.24511C7.70208 4.50094 7.72901 4.75005 7.7896 4.98569C5.08983 4.85104 2.69977 3.55838 1.09741 1.59247C0.821375 2.07048 0.659794 2.62929 0.659794 3.22175C0.659794 4.3461 1.23206 5.34252 2.1073 5.92152C1.57542 5.90806 1.07721 5.75994 0.639595 5.51756C0.639595 5.53103 0.639595 5.54449 0.639595 5.55796C0.639595 7.13338 1.7572 8.43951 3.24511 8.74247C2.9758 8.81653 2.6863 8.85693 2.39007 8.85693C2.18136 8.85693 1.97938 8.83673 1.7774 8.79633C2.18809 10.089 3.38649 11.0248 4.80707 11.0517C3.69619 11.9203 2.29581 12.4387 0.774247 12.4387C0.511677 12.4387 0.255838 12.4252 0 12.3915C1.42058 13.3206 3.13065 13.8592 4.96192 13.8592Z" fill="black" fill-opacity="0.75"/>
</svg>
